<svg xmlns="http://www.w3.org/2000/svg" viewBox="0 0 247 132">
  <g>
    <circle cx="45.0" cy="50.0" r="40.5" fill="#FFFFFF"/>
    <circle cx="45.0" cy="50.0" r="24.3" fill="black"/>
    <rect x="0" y="46.4" width="90" height="7.2" fill="black"/>
    <circle cx="45.0" cy="50.0" r="5.3999999999999995" fill="#00C2B2"/>
  </g>
  <g transform="translate(102.0,90.0) scale(0.04150,-0.04150)" fill="#FFFFFF">
    <path d="M137 0V1369H432V0Z" transform="translate(0,0)"/>
    <path d="M137 0V1369H432V0ZM595 0V288H702Q826 288 897 316Q1015 363 1086 482Q1139 573 1139 681Q1139 801 1076 899Q1003 1013 880 1057Q811 1081 670 1081H595V1369H700Q869 1369 987 1327Q1180 1259 1310 1073Q1432 898 1432 685Q1432 478 1319 305Q1189 107 984 37Q873 0 712 0Z" transform="translate(568,0)"/>
    <path d="M-103 0 378 935 542 614 226 0ZM1041 0 922 229H513L660 516H776L467 1112L633 1432L1371 0Z" transform="translate(2074,0)"/>
  </g>
  <g transform="translate(143.9,127.0) scale(0.01562,-0.01562)" fill="#00C2B2">
    <path d="M270 0V1057H516V199H1309V0Z" transform="translate(0,0)"/>
    <path d="M541 422H1004L776 852ZM68 0 666 1057H903L1509 0H1233L1106 231H436L313 0Z" transform="translate(1399,0)"/>
    <path d="M1073 885H512V633H1073Q1137 633 1161.5 650.0Q1186 667 1186 709V809Q1186 850 1161.5 867.5Q1137 885 1073 885ZM1073 459H512V190H1073Q1143 190 1167.5 211.0Q1192 232 1192 285V365Q1192 418 1167.5 438.5Q1143 459 1073 459ZM270 0V1057H1176Q1301 1057 1357.0 1008.0Q1413 959 1413 852V723Q1413 647 1366.0 601.5Q1319 556 1231 545Q1322 533 1371.5 480.0Q1421 427 1421 342V207Q1421 102 1344.0 51.0Q1267 0 1110 0Z" transform="translate(2978,0)"/>
    <path d="M1186 872H494V645H1153Q1308 645 1362.5 592.0Q1417 539 1417 395V250Q1417 106 1362.5 53.0Q1308 0 1153 0H500Q345 0 290.5 53.0Q236 106 236 250V279L453 324V199H1200V440H541Q387 440 333.0 493.0Q279 546 279 690V807Q279 951 333.0 1004.0Q387 1057 541 1057H1141Q1290 1057 1346.5 1006.0Q1403 955 1403 825V803L1186 752Z" transform="translate(4604,0)"/>
  </g>
</svg>